<?xml version="1.0" encoding="UTF-8"?>
<svg width="24" height="24" viewBox="0 0 24 24" fill="none" xmlns="http://www.w3.org/2000/svg">
  <!-- AI Brain Icon -->
  <path d="M12 3C10.9 3 10 3.9 10 5C10 5.5 10.2 5.9 10.5 6.2C9.3 6.6 8.4 7.6 8.1 8.8C7.8 8.5 7.4 8.3 7 8.3C5.9 8.3 5 9.2 5 10.3C5 11.1 5.5 11.8 6.2 12.1C6.1 12.4 6 12.7 6 13C6 14.1 6.9 15 8 15C8.3 15 8.6 14.9 8.9 14.8C9.2 16 10.2 16.9 11.4 17.3C11.1 17.6 11 18 11 18.5C11 19.6 11.9 20.5 13 20.5C14.1 20.5 15 19.6 15 18.5C15 18 14.8 17.6 14.5 17.3C15.7 16.9 16.8 16 17.1 14.8C17.4 14.9 17.7 15 18 15C19.1 15 20 14.1 20 13C20 12.7 19.9 12.4 19.8 12.1C20.5 11.8 21 11.1 21 10.3C21 9.2 20.1 8.3 19 8.3C18.6 8.3 18.2 8.5 17.9 8.8C17.6 7.6 16.7 6.6 15.5 6.2C15.8 5.9 16 5.5 16 5C16 3.9 15.1 3 14 3C13.3 3 12.7 3.4 12.3 4C12.2 4 12.1 4 12 4C12 4 11.9 4 11.8 4C11.3 3.4 10.7 3 10 3H12Z" stroke="currentColor" stroke-width="2" stroke-linecap="round" stroke-linejoin="round"/>
  <circle cx="12" cy="12" r="2" fill="currentColor"/>
  <circle cx="8" cy="10" r="1.5" fill="currentColor" opacity="0.7"/>
  <circle cx="16" cy="10" r="1.5" fill="currentColor" opacity="0.7"/>
  <circle cx="10" cy="14" r="1.5" fill="currentColor" opacity="0.7"/>
  <circle cx="14" cy="14" r="1.5" fill="currentColor" opacity="0.7"/>
</svg>



