<?xml version="1.0" encoding="UTF-8"?>
<svg width="240" height="60" viewBox="0 0 240 60" fill="none" xmlns="http://www.w3.org/2000/svg">
  <!-- AI Neural Network Icon -->
  <g id="ai-icon">
    <!-- Icon Background Circle -->
    <circle cx="30" cy="30" r="24" fill="#111827" opacity="0.05"/>
    
    <!-- Neural Network Nodes -->
    <circle cx="30" cy="20" r="3" fill="#111827"/>
    <circle cx="30" cy="40" r="3" fill="#111827"/>
    <circle cx="18" cy="30" r="3" fill="#111827"/>
    <circle cx="42" cy="30" r="3" fill="#111827"/>
    <circle cx="23" cy="25" r="2.5" fill="#111827" opacity="0.7"/>
    <circle cx="37" cy="25" r="2.5" fill="#111827" opacity="0.7"/>
    <circle cx="23" cy="35" r="2.5" fill="#111827" opacity="0.7"/>
    <circle cx="37" cy="35" r="2.5" fill="#111827" opacity="0.7"/>
    
    <!-- Neural Network Connections -->
    <line x1="30" y1="20" x2="18" y2="30" stroke="#111827" stroke-width="1.5" opacity="0.4"/>
    <line x1="30" y1="20" x2="42" y2="30" stroke="#111827" stroke-width="1.5" opacity="0.4"/>
    <line x1="30" y1="40" x2="18" y2="30" stroke="#111827" stroke-width="1.5" opacity="0.4"/>
    <line x1="30" y1="40" x2="42" y2="30" stroke="#111827" stroke-width="1.5" opacity="0.4"/>
    <line x1="23" y1="25" x2="18" y2="30" stroke="#111827" stroke-width="1" opacity="0.3"/>
    <line x1="37" y1="25" x2="42" y2="30" stroke="#111827" stroke-width="1" opacity="0.3"/>
    <line x1="23" y1="35" x2="18" y2="30" stroke="#111827" stroke-width="1" opacity="0.3"/>
    <line x1="37" y1="35" x2="42" y2="30" stroke="#111827" stroke-width="1" opacity="0.3"/>
  </g>
  
  <!-- ShortlistAI Text -->
  <g id="wordmark">
    <text x="65" y="38" font-family="Inter, -apple-system, sans-serif" font-size="24" font-weight="700" fill="#111827">
      ShortlistAI
    </text>
  </g>
</svg>





